<svg width="1200" height="700"> 
    <g>
    <rect x="350" y="150" width="150" height="190" class="room"/>
    <rect x="510" y="150" width="150" height="100" class="room"/>
    <rect x="670" y="150" width="150" height="100" class="room"/>
    <rect x="830" y="150" width="170" height="100" class="room"/>
    <rect x="1010" y="150" width="180" height="100" class="room"/>

    <rect x="1080" y="260" width="110" height="100" class="room"/>
    <rect x="1040" y="370" width="150" height="90" class="staircase"/>
    <rect x="1080" y="470" width="110" height="60" class="room"/>
    <rect x="1080" y="540" width="110" height="60" class="room"/>

    <rect x="350" y="410" width="150" height="190" class="room"/>
    <rect x="510" y="500" width="100" height="100" class="room"/>
    <rect x="620" y="500" width="150" height="100" class="room"/>
    <rect x="780" y="500" width="150" height="100" class="room"/>

    <rect x="498" y="285" width="6" height="35" class="doors"/> 
    <rect x="498" y="419" width="6" height="65" class="doors"/> 

    <rect x="570" y="248" width="35" height="6" class="doors"/> 
    <rect x="720" y="248" width="35" height="6" class="doors"/> 
    <rect x="870" y="248" width="35" height="6" class="doors"/> 
    <rect x="1030" y="248" width="35" height="6" class="doors"/> 

    <rect x="550" y="498" width="35" height="6" class="doors"/> 
    <rect x="665" y="498" width="55" height="6" class="doors"/> 
    <rect x="825" y="498" width="55" height="6" class="doors"/> 

    <rect x="1078" y="290" width="6" height="35" class="doors"/> 
    <rect x="1078" y="485" width="6" height="30" class="doors"/> 
    <rect x="1078" y="555" width="6" height="30" class="doors"/> 

    <text x="360" y="250" class="text">OPERATIONS ROOM 1</text>
    <text x="400" y="380" class="text">ENTRANCE</text>
    <text x="360" y="520" class="text">OPERATIONS ROOM 2</text>
    <text x="550" y="200" class="text">ORDINATION 1</text>
    <text x="710" y="200" class="text">ORDINATION 2</text>
    <text x="890" y="200" class="text">ROOM 1</text>
    <text x="1070" y="200" class="text">ROOM 2</text>
    <text x="1090" y="320" class="text">ORDINATION 3</text>
    <text x="1110" y="420" class="text">LIFT</text>
    <text x="1110" y="505" class="text">TOILET</text>
    <text x="1110" y="575" class="text">TOILET</text>
    <text x="535" y="550" class="text">ROOM 3</text>
    <text x="670" y="550" class="text">ROOM 4</text>
    <text x="830" y="550" class="text">ROOM 5</text>
    </g>
</svg>